<?xml version="1.0" standalone="no"?>
<!DOCTYPE svg PUBLIC "-//W3C//DTD SVG 20010904//EN"
 "http://www.w3.org/TR/2001/REC-SVG-20010904/DTD/svg10.dtd">
<svg version="1.0" xmlns="http://www.w3.org/2000/svg"
 width="1500.000000pt" height="1500.000000pt" viewBox="0 0 1500.000000 1500.000000"
 preserveAspectRatio="xMidYMid meet">
<metadata>
Created by potrace 1.11, written by Peter Selinger 2001-2013
</metadata>
<g transform="translate(0.000000,1500.000000) scale(0.100000,-0.100000)"
fill="#000000" stroke="none">
<path d="M8331 12800 c-375 -53 -691 -330 -791 -693 -19 -70 -43 -263 -34
-279 2 -3 -335 -281 -749 -616 -415 -336 -777 -636 -805 -667 -87 -95 -141
-240 -142 -376 0 -75 32 -196 72 -272 112 -210 374 -332 608 -283 132 28 190
65 547 356 183 148 335 270 338 270 3 0 5 -1467 5 -3260 l0 -3260 -22 0 c-66
-1 -340 -22 -458 -36 -620 -72 -1135 -265 -1335 -498 -106 -124 -130 -259 -69
-386 36 -75 90 -139 167 -198 459 -355 1504 -524 2477 -401 704 88 1232 320
1364 598 26 56 31 78 31 141 0 64 -5 85 -33 144 -118 250 -573 468 -1192 570
-158 26 -428 56 -506 56 l-44 0 0 3423 0 3423 227 184 c125 101 234 184 243
183 8 -1 60 -7 115 -13 455 -51 882 224 1018 655 110 348 16 720 -245 971
-131 127 -256 197 -425 240 -106 27 -266 37 -362 24z"/>
</g>
</svg>
